<?xml version="1.0" encoding="utf-8"?>
<svg width="70" height="70" viewBox="0 0 70 70" xmlns="http://www.w3.org/2000/svg">
  <defs>
    <path id="a" d="M4 0h61c4 0 5 1 5 5v60c0 4-1 5-5 5H4c-3 0-4-1-4-5V5c0-4 1-5 4-5z"/>
    <linearGradient id="c" x1="100%" x2="0%" y1="0%" y2="100%">
      <stop offset="0" stop-color="#B06161"/>
      <stop offset="0.4579" stop-color="#984E4E"/>
      <stop offset="1" stop-color="#7C3838"/>
    </linearGradient>
    <mask id="mask-1" x="0" y="0" width="97.65" height="44.92" maskUnits="userSpaceOnUse">
      <path d="M97.63 44.9H0V0h97.63z" fill="#fff"/>
    </mask>
    <mask id="mask-2" x="0" y="0" width="97.65" height="44.92" maskUnits="userSpaceOnUse">
      <path d="M97.63 44.9H0V0h97.63z" fill="#fff"/>
    </mask>
  </defs>
  <mask id="b" fill="#fff" fill-rule="evenodd">
    <path d="M4 0h61c4 0 5 1 5 5v60c0 4-1 5-5 5H4c-3 0-4-1-4-5V5c0-4 1-5 4-5z" transform="matrix(1, 0, 0, 1, 0, 0)"/>
  </mask>
  <path fill="url(#c)" d="M 0 0 L 70 0 L 70 70 L 0 70 Z" mask="url(#b)" fill-rule="evenodd"/>
  <path fill="#FFF" fill-opacity=".383" d="M 4 1 L 65 1 C 67.667 1 69.333 1.667 70 3 L 70 0 L 0 0 L 0 3 C 0.667 1.667 2 1 4 1 Z" mask="url(#b)" fill-rule="evenodd"/>
  <path fill="#393939" d="M 31.795 69.081 L 4 69 C 2 69 0 68 0 65 L 0.081 33.844 L 11.358 22.405 L 22.935 26 L 17.404 31.452 L 21.879 34.063 L 27.63 28.483 L 33.136 31.977 L 36.789 28.372 L 37.707 31.428 L 39.731 29.146 L 47.418 21.565 L 55.362 23.129 L 59.274 41.673 L 31.795 69.081 Z" opacity=".33" fill-rule="evenodd" mask="url(#b)"/>
  <path fill="#000" fill-opacity=".383" d="M 4 69 L 65 69 C 67.667 69 69.333 68 70 66 L 70 70 L 0 70 L 0 66 C 0.667 68 2 69 4 69 Z" mask="url(#b)" fill-rule="evenodd"/>
  <title>Asset 1</title>
  <g transform="matrix(1, 0, 0, 1, 0.322581, 3.306452)">
    <g mask="url(#mask-1)" data-name="Layer 1" transform="matrix(0.536811, 0, 0, 0.536811, 8.755646, 18.265808)" style="">
      <path d="M62.76 15.88H52.23l-2.43 4.58a10.93 10.93 0 0 1-.88 1.54h-.11s-.5-.77-.88-1.49l-2.43-4.63H35l8.27 13L35 42h10.35l2.79-5.33a15.19 15.19 0 0 0 .66-1.45h.11a13.42 13.42 0 0 0 .66 1.45L52.41 42h10.36l-8.24-13 8.22-13M16.11 35.56a5.11 5.11 0 0 1-5.23-5 7.82 7.82 0 0 1 2.31-5.29c4.25 1.94 8.14 3.4 8.14 5.9 0 2.83-2 4.39-5.22 4.39zm.3-26.2c2.86 0 4.56 1.58 4.56 4a11 11 0 0 1-1.52 5.35c-3.83-1.64-7-3.1-7-6 .01-1.83 1.23-3.35 3.96-3.35zm10.7 13.13c.42-.55 4.25-5.23 4.25-9.91C31.36 4.5 24.74 0 16.65 0 6.5 0 2.07 6.2 2.07 12.52A10.56 10.56 0 0 0 6 20.85c-1.34 1-6 5-6 10.58 0 6.93 5.53 13.49 16.11 13.49 10.76 0 16.11-6.62 16.11-13.25 0-4.38-2.22-7.17-5.11-9.18zm54.41 13.07a5.11 5.11 0 0 1-5.23-5 7.82 7.82 0 0 1 2.31-5.29c4.25 1.94 8.15 3.4 8.15 5.9 0 2.86-2 4.44-5.23 4.44zm.31-26.2c2.86 0 4.56 1.58 4.56 4a11 11 0 0 1-1.52 5.35c-3.83-1.64-7-3.1-7-6 0-1.83 1.22-3.35 3.95-3.35zm10.7 13.13c.43-.55 4.25-5.23 4.25-9.91C96.78 4.5 90.15 0 82.07 0 71.92 0 67.48 6.2 67.48 12.52a10.57 10.57 0 0 0 3.95 8.33c-1.34 1-6 5-6 10.58 0 6.93 5.53 13.49 16.11 13.49 10.76 0 16.11-6.62 16.11-13.25 0-4.38-2.21-7.17-5.13-9.18z" style="fill: rgba(86, 51, 51, 0.55);"/>
    </g>
    <g mask="url(#mask-2)" data-name="Layer 1" transform="matrix(0.536811, 0, 0, 0.536811, 8.54827, 16.491615)" style="">
      <path d="M62.76 15.88H52.23l-2.43 4.58a10.93 10.93 0 0 1-.88 1.54h-.11s-.5-.77-.88-1.49l-2.43-4.63H35l8.27 13L35 42h10.35l2.79-5.33a15.19 15.19 0 0 0 .66-1.45h.11a13.42 13.42 0 0 0 .66 1.45L52.41 42h10.36l-8.24-13 8.22-13M16.11 35.56a5.11 5.11 0 0 1-5.23-5 7.82 7.82 0 0 1 2.31-5.29c4.25 1.94 8.14 3.4 8.14 5.9 0 2.83-2 4.39-5.22 4.39zm.3-26.2c2.86 0 4.56 1.58 4.56 4a11 11 0 0 1-1.52 5.35c-3.83-1.64-7-3.1-7-6 .01-1.83 1.23-3.35 3.96-3.35zm10.7 13.13c.42-.55 4.25-5.23 4.25-9.91C31.36 4.5 24.74 0 16.65 0 6.5 0 2.07 6.2 2.07 12.52A10.56 10.56 0 0 0 6 20.85c-1.34 1-6 5-6 10.58 0 6.93 5.53 13.49 16.11 13.49 10.76 0 16.11-6.62 16.11-13.25 0-4.38-2.22-7.17-5.11-9.18zm54.41 13.07a5.11 5.11 0 0 1-5.23-5 7.82 7.82 0 0 1 2.31-5.29c4.25 1.94 8.15 3.4 8.15 5.9 0 2.86-2 4.44-5.23 4.44zm.31-26.2c2.86 0 4.56 1.58 4.56 4a11 11 0 0 1-1.52 5.35c-3.83-1.64-7-3.1-7-6 0-1.83 1.22-3.35 3.95-3.35zm10.7 13.13c.43-.55 4.25-5.23 4.25-9.91C96.78 4.5 90.15 0 82.07 0 71.92 0 67.48 6.2 67.48 12.52a10.57 10.57 0 0 0 3.95 8.33c-1.34 1-6 5-6 10.58 0 6.93 5.53 13.49 16.11 13.49 10.76 0 16.11-6.62 16.11-13.25 0-4.38-2.21-7.17-5.13-9.18z" style="fill: rgb(255, 255, 255);"/>
    </g>
  </g>
</svg>